<?xml version="1.0" standalone="no"?>
<!DOCTYPE svg PUBLIC "-//W3C//DTD SVG 20010904//EN"
 "http://www.w3.org/TR/2001/REC-SVG-20010904/DTD/svg10.dtd">
<svg version="1.0" xmlns="http://www.w3.org/2000/svg"
 width="512.000000pt" height="512.000000pt" viewBox="0 0 512.000000 512.000000"
 preserveAspectRatio="xMidYMid meet">

<g transform="translate(0.000000,512.000000) scale(0.100000,-0.100000)"
fill="#000000" stroke="none">
<path d="M1285 4870 c-220 -47 -411 -220 -546 -493 -62 -127 -83 -221 -76
-341 3 -52 14 -121 27 -160 18 -57 23 -98 25 -220 4 -216 41 -369 135 -556 65
-128 136 -226 247 -341 92 -94 93 -96 73 -114 -11 -10 -33 -39 -50 -65 l-30
-47 -90 -12 c-242 -31 -450 -131 -616 -296 -140 -139 -197 -252 -175 -342 28
-109 109 -173 218 -173 78 0 155 46 190 114 25 48 112 134 172 171 61 37 194
85 235 85 22 0 26 -5 26 -29 0 -15 3 -55 6 -87 l6 -59 -87 -44 c-159 -80 -314
-211 -411 -346 -94 -133 -174 -344 -174 -462 0 -226 279 -307 405 -118 8 11
21 56 30 99 29 140 96 248 213 346 53 45 159 110 177 109 6 0 26 -22 47 -48
l36 -48 -45 -44 c-125 -122 -252 -335 -293 -494 -44 -171 -45 -370 -3 -452 43
-83 159 -135 247 -112 63 17 103 46 133 97 26 43 27 54 28 176 1 107 6 143 24
196 39 114 122 235 217 315 l56 48 121 -41 c254 -85 417 -107 782 -107 371 1
526 23 786 112 l106 36 53 -44 c94 -79 180 -202 222 -315 18 -49 22 -82 22
-194 1 -129 3 -138 29 -183 88 -150 310 -131 385 32 24 52 26 66 25 186 -1
161 -30 282 -102 430 -50 101 -154 246 -229 319 l-41 39 37 46 c20 25 38 48
40 51 7 10 132 -63 194 -114 110 -91 173 -196 203 -334 17 -85 32 -117 72
-154 105 -100 282 -66 344 67 51 111 -15 352 -151 549 -96 139 -276 291 -443
372 l-58 29 7 90 c3 49 8 92 9 93 9 10 168 -44 224 -74 94 -51 145 -97 196
-175 25 -39 63 -81 85 -95 102 -68 253 -26 310 87 26 51 26 139 0 197 -48 106
-202 263 -339 346 -133 80 -366 155 -483 156 -31 0 -40 5 -59 37 -13 20 -35
51 -51 68 l-27 32 88 91 c194 200 321 443 366 699 8 47 15 143 15 214 0 114 3
138 27 206 23 67 27 94 27 193 0 100 -4 126 -28 195 -74 216 -254 447 -418
539 -156 87 -358 100 -430 28 -54 -53 -50 -78 51 -357 50 -137 91 -251 91
-252 0 -2 -100 47 -222 108 -240 120 -275 130 -326 92 -46 -33 -64 -84 -69
-197 -7 -119 7 -213 44 -300 56 -135 184 -288 312 -375 76 -52 211 -117 264
-126 20 -4 39 -11 42 -15 7 -12 -32 -118 -67 -179 -63 -113 -150 -210 -259
-289 l-57 -41 -93 14 c-52 8 -109 15 -126 15 -36 0 -39 6 -18 34 19 25 19 89
0 125 -8 16 -31 36 -51 46 -96 45 -195 -44 -160 -144 l12 -37 -386 0 -386 0
12 37 c35 100 -64 189 -160 144 -20 -10 -43 -30 -51 -46 -20 -37 -19 -99 1
-127 9 -13 14 -24 13 -26 -2 -1 -62 -10 -133 -19 l-128 -16 -87 69 c-128 103
-215 220 -266 355 -14 37 -24 74 -21 80 2 7 22 16 43 19 57 11 209 88 283 144
247 187 367 444 331 705 -13 93 -31 131 -71 152 -58 30 -89 21 -320 -95 -121
-61 -220 -106 -220 -102 0 5 38 114 86 243 51 142 85 250 86 276 1 46 -18 84
-57 109 -29 19 -168 28 -230 14z"/>
</g>
</svg>
