<svg xmlns="http://www.w3.org/2000/svg" width="512" height="512" viewBox="0 0 512 512" version="1.1"><path d="M 128.265 37.542 C 118.730 40.109, 112.885 43.849, 103.500 53.386 C 90.108 66.996, 81.429 82.629, 78.820 97.843 C 76.089 113.772, 82.447 130.631, 96.416 144.502 C 106.053 154.070, 114.157 158.733, 122.699 159.626 C 130.846 160.478, 143.194 157.253, 152.866 151.747 C 166.925 143.744, 181.341 127.856, 187.137 113.980 C 189.134 109.198, 189.430 106.759, 189.463 94.835 C 189.483 87.319, 189.211 80.880, 188.858 80.526 C 188.505 80.172, 178.272 84.859, 166.117 90.942 C 150.398 98.807, 142.990 102, 140.459 102 C 132.976 102, 127.953 96.859, 128.048 89.300 C 128.075 87.099, 131.814 75.401, 136.932 61.500 C 143.044 44.898, 145.418 37.274, 144.634 36.765 C 142.819 35.589, 133.952 36.010, 128.265 37.542 M 367.357 36.765 C 366.560 37.277, 368.905 44.927, 375.093 62 C 379.977 75.475, 383.977 87.850, 383.983 89.500 C 384.004 95.894, 377.471 102, 370.610 102 C 369.260 102, 358.151 97.023, 345.924 90.940 C 330.483 83.258, 323.470 80.240, 322.964 81.059 C 321.575 83.305, 320.937 95.530, 321.870 102 C 323.876 115.906, 331.050 128.304, 344.060 140.350 C 357.122 152.443, 371.587 158.929, 385.590 158.974 C 396.851 159.010, 403.489 155.646, 415.018 144.060 C 428.713 130.298, 433.541 118.903, 432.793 102.113 C 432.441 94.214, 431.789 91.084, 429.135 84.556 C 418.728 58.959, 400.969 41.004, 382.201 37.102 C 376.152 35.844, 369.041 35.683, 367.357 36.765 M 84.289 157.501 C 85.019 166.869, 88.873 182.394, 92.508 190.613 C 93.915 193.796, 95.251 196.584, 95.475 196.809 C 95.700 197.033, 98.047 195.417, 100.692 193.217 C 106.488 188.394, 112.213 185.425, 119.251 183.590 C 125.039 182.082, 125.368 181.209, 122.623 174.640 C 121.421 171.764, 120.625 171.213, 116.954 170.721 C 109.963 169.783, 98.955 163.659, 90.967 156.263 L 83.665 149.503 84.289 157.501 M 422 155.214 C 412.113 164.450, 403.409 169.132, 391.760 171.480 C 389.475 171.941, 388.823 172.818, 387.829 176.766 C 387.173 179.370, 386.757 181.725, 386.904 182 C 387.051 182.275, 389.289 182.977, 391.877 183.560 C 398.529 185.058, 405.082 188.440, 410.395 193.117 C 412.909 195.329, 415.370 196.889, 415.865 196.584 C 417.286 195.705, 422.794 181.260, 424.951 172.755 C 426.762 165.614, 428.787 149.950, 427.888 150.038 C 427.675 150.059, 425.025 152.388, 422 155.214 M 121.500 195.399 C 119.300 196.095, 116.150 197.376, 114.500 198.247 C 110.636 200.285, 103 206.860, 103 208.148 C 103 210.263, 109.819 218.918, 118.749 228.137 L 128.083 237.775 135.389 233.994 C 139.407 231.915, 145.806 229.212, 149.608 227.987 L 156.520 225.761 147.510 216.521 C 142.555 211.439, 136.700 204.309, 134.500 200.676 C 130.100 193.410, 129.087 192.999, 121.500 195.399 M 376 201.139 C 373.525 205.097, 367.642 212.218, 362.926 216.964 L 354.353 225.593 360.426 227.359 C 363.767 228.330, 370.186 230.897, 374.691 233.063 C 379.196 235.228, 383.259 237, 383.720 237 C 386.542 237, 408 211.348, 408 207.975 C 408 205.716, 401.636 200.172, 395.560 197.137 C 393.046 195.882, 388.629 194.649, 385.745 194.399 L 380.500 193.944 376 201.139 M 235.500 228.687 C 206.086 229.389, 175.884 232.920, 159.500 237.573 C 138.413 243.561, 124.008 253.828, 118.912 266.500 C 116.668 272.083, 116.506 273.716, 116.587 290 C 116.713 315.449, 120.433 333.273, 129.123 350.075 C 147.476 385.559, 189.275 402.993, 256 402.993 C 315.930 402.993, 356.479 388.694, 376.503 360.500 C 389.495 342.207, 395.260 320.712, 395.413 290 C 395.493 273.898, 395.315 272.041, 393.179 266.753 C 385.501 247.739, 361.972 236.501, 319.361 231.497 C 306.803 230.022, 261.457 227.838, 251.500 228.229 C 248.750 228.337, 241.550 228.543, 235.500 228.687 M 94 273.553 C 75.163 277.592, 58.577 286.584, 45.840 299.662 C 37.524 308.201, 33 315.287, 33 319.773 C 33 326.447, 41.082 331.167, 47.045 327.976 C 48.097 327.413, 50.724 324.375, 52.882 321.226 C 62.502 307.186, 79.791 296.136, 97.350 292.805 L 104 291.544 104.014 284.022 C 104.021 279.885, 104.299 275.488, 104.630 274.250 C 105.356 271.542, 103.841 271.443, 94 273.553 M 407.748 280.750 C 408.233 291.655, 408.351 292, 411.571 292 C 415.838 292, 431.081 297.525, 438.049 301.597 C 446.012 306.250, 455.192 314.800, 459.657 321.722 C 461.509 324.593, 463.890 327.406, 464.947 327.972 C 471.028 331.226, 479 326.453, 479 319.557 C 479 317.408, 477.939 314.258, 476.365 311.730 C 464.712 293.026, 443.016 278.627, 418.685 273.450 C 406.804 270.922, 407.296 270.594, 407.748 280.750 M 99.663 338.268 C 74.009 352.092, 55.157 376.960, 51.008 402.448 C 49.452 412.014, 52.663 417, 60.378 417 C 66.006 417, 68.682 413.812, 70.454 405 C 74.449 385.132, 89.684 365.948, 110.159 355.004 L 115.817 351.980 112.909 344.426 C 111.309 340.272, 110 336.226, 110 335.436 C 110 333.199, 108.106 333.718, 99.663 338.268 M 402 335.436 C 402 336.226, 400.725 340.183, 399.167 344.230 L 396.334 351.587 402.917 355.447 C 424.496 368.101, 438.734 386.994, 441.550 406.712 C 442.518 413.491, 445.992 417, 451.735 417 C 457.576 417, 461.007 413.515, 460.985 407.604 C 460.948 397.257, 454.165 379.591, 445.646 367.652 C 437.401 356.098, 421.911 343.028, 408.290 336.132 C 403.344 333.628, 402 333.479, 402 335.436 M 371.925 382.590 C 371.199 383.465, 367.823 386.166, 364.423 388.592 L 358.241 393.004 364.518 399.406 C 375.563 410.670, 383.420 424.201, 386.499 437.258 C 387.308 440.691, 387.991 448.450, 388.017 454.500 C 388.047 461.544, 388.502 466.071, 389.282 467.087 C 393.501 472.582, 403.010 472.099, 406.140 466.230 C 408.226 462.320, 407.884 440.336, 405.601 431.500 C 403.241 422.366, 396.207 407.445, 390.472 399.409 C 385.539 392.496, 375.262 381, 374.015 381 C 373.591 381, 372.651 381.716, 371.925 382.590 M 131.929 387.750 C 120.077 400.676, 110.897 416.502, 107.503 429.863 C 103.561 445.381, 103.696 462.437, 107.804 467.940 C 110.557 471.627, 114.914 472.609, 119.294 470.531 C 121.247 469.604, 123.165 468.093, 123.556 467.173 C 123.947 466.253, 124.356 459.875, 124.464 453 C 124.632 442.331, 125.059 439.341, 127.378 432.587 C 128.873 428.235, 131.696 421.935, 133.652 418.587 C 138.125 410.932, 147.005 399.997, 151.584 396.504 L 155.081 393.837 148.116 388.945 C 144.286 386.255, 140.866 383.592, 140.517 383.027 C 139.232 380.949, 137.079 382.133, 131.929 387.750" stroke="none" fill="#ff0013" fill-rule="evenodd"/><path d="M 124.500 25.548 C 105.182 30.839, 86.189 48.793, 73.738 73.532 C 67.704 85.522, 65.771 93.145, 65.758 105 C 65.749 113.634, 66.212 116.921, 68.361 123.500 C 70.614 130.396, 70.976 133.241, 70.987 144.119 C 71.023 179.077, 83.527 209.367, 109.060 236.347 L 117.890 245.677 115.118 249.089 C 113.593 250.965, 111.496 253.963, 110.457 255.750 C 108.879 258.465, 107.976 259, 104.968 259 C 94.667 259, 76.154 264.322, 63 271.064 C 46.720 279.408, 33.184 291.803, 24.056 306.724 C 19.694 313.855, 18.975 320.894, 21.927 327.567 C 26.044 336.876, 32.726 341.420, 42.203 341.357 C 50.916 341.299, 56.392 338.038, 62.200 329.450 C 67.248 321.985, 72.948 316.459, 79.763 312.425 C 84.800 309.442, 94.996 305.535, 100.184 304.599 L 103.868 303.934 104.487 308.717 C 104.827 311.348, 105.338 315.134, 105.621 317.132 L 106.136 320.764 97.359 325.433 C 68.174 340.959, 48.772 364.021, 40.922 392.518 C 37.724 404.129, 37.860 412.379, 41.349 418.332 C 50.130 433.316, 72.240 433.108, 80.006 417.968 C 81.003 416.026, 82.273 411.976, 82.829 408.968 C 86.077 391.407, 98.412 375.455, 115.989 366.087 L 121.816 362.981 125.514 368.019 L 129.212 373.056 121.843 380.778 C 108.701 394.549, 100.074 409.826, 95.246 427.881 C 93.066 436.032, 92.664 439.714, 92.611 452 C 92.542 467.923, 93.440 471.167, 99.629 477.356 C 107.726 485.453, 121.250 486.110, 129.564 478.809 C 135.597 473.513, 136.368 471.059, 137.047 455 C 137.722 439.040, 139.231 433.188, 145.238 423.228 C 148.989 417.008, 157.319 407.499, 162.861 403.110 L 166.667 400.095 177.584 403.940 C 200.118 411.876, 222.884 415.161, 255.500 415.184 C 288.660 415.208, 311.684 411.948, 334.078 404.060 L 345.333 400.095 349.139 403.110 C 359.429 411.260, 369.359 425.270, 373.159 437 C 374.852 442.226, 375.246 445.840, 375.170 455.441 C 375.060 469.235, 376.362 473.477, 382.306 478.695 C 391.031 486.356, 403.571 485.701, 412.139 477.137 C 417.960 471.318, 420 465.042, 420 452.949 C 420 426.367, 409.553 401.102, 390.157 380.778 L 382.788 373.056 386.479 368.028 C 388.509 365.263, 390.391 363, 390.661 363 C 393.141 363, 407.014 372.844, 413.091 378.916 C 421.914 387.732, 427.079 397.180, 429.438 408.818 C 431.188 417.452, 433.896 422.247, 438.873 425.519 C 449.800 432.702, 464.129 429.461, 470.651 418.332 C 474.130 412.395, 474.275 404.183, 471.107 392.500 C 463.264 363.581, 441.568 338.850, 410.196 323.069 L 405.892 320.904 406.499 316.202 C 408.309 302.182, 407.389 303.169, 416.448 305.528 C 429.869 309.024, 442.462 317.959, 449.840 329.219 C 452.103 332.673, 455.428 336.489, 457.228 337.697 C 473.538 348.648, 495.519 333.435, 491.166 314.209 C 487.751 299.128, 464.251 276.825, 441.799 267.356 C 432.856 263.584, 422.102 260.688, 411 259.060 C 405.681 258.281, 403.064 257.399, 402 256.027 C 401.175 254.964, 398.984 252.046, 397.131 249.544 L 393.761 244.993 403.229 235.129 C 421.670 215.916, 433.595 193.528, 438.584 168.752 C 439.548 163.961, 440.377 154.208, 440.558 145.500 C 440.816 133.170, 441.257 129.432, 443.038 124.500 C 446.121 115.960, 446.775 101.580, 444.538 91.525 C 441.206 76.549, 427.452 53.244, 415.160 41.746 C 403.045 30.414, 391.150 25.122, 375.898 24.278 C 364.669 23.657, 360.206 24.778, 356.533 29.143 C 352.336 34.131, 353.002 38.060, 362.530 64.554 C 367.222 77.600, 370.882 88.451, 370.664 88.669 C 370.446 88.887, 360.226 84.055, 347.952 77.931 C 328.893 68.422, 325.137 66.878, 322.212 67.353 C 314.258 68.644, 311.493 72.823, 310.026 85.769 C 308.979 95.012, 309.878 106.990, 312.144 114 C 317.029 129.113, 331.436 147.654, 346.131 157.738 C 352.736 162.271, 364.134 167.751, 370.825 169.611 L 376.799 171.272 375.023 176.434 C 369.707 191.884, 358.653 206.616, 344.653 216.908 L 338.806 221.206 327.385 219.901 C 321.104 219.183, 315.516 218.319, 314.968 217.980 C 314.343 217.594, 314.574 216.156, 315.587 214.127 C 317.688 209.914, 316.761 204.884, 313.137 200.827 C 310.926 198.353, 309.377 197.647, 305.303 197.255 C 300.582 196.801, 299.955 197.014, 296.392 200.280 C 293.089 203.307, 292.555 204.394, 292.530 208.146 C 292.513 210.541, 292.832 213.400, 293.238 214.500 C 293.968 216.478, 293.555 216.500, 256 216.500 C 218.445 216.500, 218.032 216.478, 218.762 214.500 C 219.168 213.400, 219.487 210.541, 219.470 208.146 C 219.445 204.394, 218.911 203.307, 215.608 200.280 C 212.045 197.014, 211.418 196.801, 206.697 197.255 C 202.623 197.647, 201.074 198.353, 198.863 200.827 C 195.239 204.884, 194.312 209.914, 196.413 214.127 C 198.321 217.951, 197.447 218.926, 192 219.047 C 190.075 219.090, 185.125 219.677, 181 220.351 L 173.500 221.577 165.916 215.869 C 153.476 206.509, 144.285 194.994, 138.936 182.071 C 134.317 170.911, 134.284 171.415, 139.722 170.068 C 158.707 165.365, 181.631 147.354, 192.837 128.335 C 200.016 116.152, 201.420 110.564, 201.463 94 C 201.495 81.448, 201.231 78.964, 199.500 75.513 C 197.175 70.879, 191.903 67, 187.930 67 C 186.404 67, 175.165 71.970, 162.955 78.045 C 150.746 84.119, 140.654 88.957, 140.529 88.795 C 140.404 88.633, 144.257 77.700, 149.091 64.500 C 153.925 51.300, 157.907 39.150, 157.939 37.500 C 158.027 32.942, 154.944 27.722, 151 25.752 C 146.689 23.598, 132.032 23.485, 124.500 25.548 M 128.265 37.542 C 118.730 40.109, 112.885 43.849, 103.500 53.386 C 90.108 66.996, 81.429 82.629, 78.820 97.843 C 76.089 113.772, 82.447 130.631, 96.416 144.502 C 106.053 154.070, 114.157 158.733, 122.699 159.626 C 130.846 160.478, 143.194 157.253, 152.866 151.747 C 166.925 143.744, 181.341 127.856, 187.137 113.980 C 189.134 109.198, 189.430 106.759, 189.463 94.835 C 189.483 87.319, 189.211 80.880, 188.858 80.526 C 188.505 80.172, 178.272 84.859, 166.117 90.942 C 150.398 98.807, 142.990 102, 140.459 102 C 132.976 102, 127.953 96.859, 128.048 89.300 C 128.075 87.099, 131.814 75.401, 136.932 61.500 C 143.044 44.898, 145.418 37.274, 144.634 36.765 C 142.819 35.589, 133.952 36.010, 128.265 37.542 M 367.357 36.765 C 366.560 37.277, 368.905 44.927, 375.093 62 C 379.977 75.475, 383.977 87.850, 383.983 89.500 C 384.004 95.894, 377.471 102, 370.610 102 C 369.260 102, 358.151 97.023, 345.924 90.940 C 330.483 83.258, 323.470 80.240, 322.964 81.059 C 321.575 83.305, 320.937 95.530, 321.870 102 C 323.876 115.906, 331.050 128.304, 344.060 140.350 C 357.122 152.443, 371.587 158.929, 385.590 158.974 C 396.851 159.010, 403.489 155.646, 415.018 144.060 C 428.713 130.298, 433.541 118.903, 432.793 102.113 C 432.441 94.214, 431.789 91.084, 429.135 84.556 C 418.728 58.959, 400.969 41.004, 382.201 37.102 C 376.152 35.844, 369.041 35.683, 367.357 36.765 M 84.289 157.501 C 85.019 166.869, 88.873 182.394, 92.508 190.613 C 93.915 193.796, 95.251 196.584, 95.475 196.809 C 95.700 197.033, 98.047 195.417, 100.692 193.217 C 106.488 188.394, 112.213 185.425, 119.251 183.590 C 125.039 182.082, 125.368 181.209, 122.623 174.640 C 121.421 171.764, 120.625 171.213, 116.954 170.721 C 109.963 169.783, 98.955 163.659, 90.967 156.263 L 83.665 149.503 84.289 157.501 M 422 155.214 C 412.113 164.450, 403.409 169.132, 391.760 171.480 C 389.475 171.941, 388.823 172.818, 387.829 176.766 C 387.173 179.370, 386.757 181.725, 386.904 182 C 387.051 182.275, 389.289 182.977, 391.877 183.560 C 398.529 185.058, 405.082 188.440, 410.395 193.117 C 412.909 195.329, 415.370 196.889, 415.865 196.584 C 417.286 195.705, 422.794 181.260, 424.951 172.755 C 426.762 165.614, 428.787 149.950, 427.888 150.038 C 427.675 150.059, 425.025 152.388, 422 155.214 M 121.500 195.399 C 119.300 196.095, 116.150 197.376, 114.500 198.247 C 110.636 200.285, 103 206.860, 103 208.148 C 103 210.263, 109.819 218.918, 118.749 228.137 L 128.083 237.775 135.389 233.994 C 139.407 231.915, 145.806 229.212, 149.608 227.987 L 156.520 225.761 147.510 216.521 C 142.555 211.439, 136.700 204.309, 134.500 200.676 C 130.100 193.410, 129.087 192.999, 121.500 195.399 M 376 201.139 C 373.525 205.097, 367.642 212.218, 362.926 216.964 L 354.353 225.593 360.426 227.359 C 363.767 228.330, 370.186 230.897, 374.691 233.063 C 379.196 235.228, 383.259 237, 383.720 237 C 386.542 237, 408 211.348, 408 207.975 C 408 205.716, 401.636 200.172, 395.560 197.137 C 393.046 195.882, 388.629 194.649, 385.745 194.399 L 380.500 193.944 376 201.139 M 235.500 228.687 C 206.086 229.389, 175.884 232.920, 159.500 237.573 C 138.413 243.561, 124.008 253.828, 118.912 266.500 C 116.668 272.083, 116.506 273.716, 116.587 290 C 116.713 315.449, 120.433 333.273, 129.123 350.075 C 147.476 385.559, 189.275 402.993, 256 402.993 C 315.930 402.993, 356.479 388.694, 376.503 360.500 C 389.495 342.207, 395.260 320.712, 395.413 290 C 395.493 273.898, 395.315 272.041, 393.179 266.753 C 385.501 247.739, 361.972 236.501, 319.361 231.497 C 306.803 230.022, 261.457 227.838, 251.500 228.229 C 248.750 228.337, 241.550 228.543, 235.500 228.687 M 94 273.553 C 75.163 277.592, 58.577 286.584, 45.840 299.662 C 37.524 308.201, 33 315.287, 33 319.773 C 33 326.447, 41.082 331.167, 47.045 327.976 C 48.097 327.413, 50.724 324.375, 52.882 321.226 C 62.502 307.186, 79.791 296.136, 97.350 292.805 L 104 291.544 104.014 284.022 C 104.021 279.885, 104.299 275.488, 104.630 274.250 C 105.356 271.542, 103.841 271.443, 94 273.553 M 407.748 280.750 C 408.233 291.655, 408.351 292, 411.571 292 C 415.838 292, 431.081 297.525, 438.049 301.597 C 446.012 306.250, 455.192 314.800, 459.657 321.722 C 461.509 324.593, 463.890 327.406, 464.947 327.972 C 471.028 331.226, 479 326.453, 479 319.557 C 479 317.408, 477.939 314.258, 476.365 311.730 C 464.712 293.026, 443.016 278.627, 418.685 273.450 C 406.804 270.922, 407.296 270.594, 407.748 280.750 M 99.663 338.268 C 74.009 352.092, 55.157 376.960, 51.008 402.448 C 49.452 412.014, 52.663 417, 60.378 417 C 66.006 417, 68.682 413.812, 70.454 405 C 74.449 385.132, 89.684 365.948, 110.159 355.004 L 115.817 351.980 112.909 344.426 C 111.309 340.272, 110 336.226, 110 335.436 C 110 333.199, 108.106 333.718, 99.663 338.268 M 402 335.436 C 402 336.226, 400.725 340.183, 399.167 344.230 L 396.334 351.587 402.917 355.447 C 424.496 368.101, 438.734 386.994, 441.550 406.712 C 442.518 413.491, 445.992 417, 451.735 417 C 457.576 417, 461.007 413.515, 460.985 407.604 C 460.948 397.257, 454.165 379.591, 445.646 367.652 C 437.401 356.098, 421.911 343.028, 408.290 336.132 C 403.344 333.628, 402 333.479, 402 335.436 M 371.925 382.590 C 371.199 383.465, 367.823 386.166, 364.423 388.592 L 358.241 393.004 364.518 399.406 C 375.563 410.670, 383.420 424.201, 386.499 437.258 C 387.308 440.691, 387.991 448.450, 388.017 454.500 C 388.047 461.544, 388.502 466.071, 389.282 467.087 C 393.501 472.582, 403.010 472.099, 406.140 466.230 C 408.226 462.320, 407.884 440.336, 405.601 431.500 C 403.241 422.366, 396.207 407.445, 390.472 399.409 C 385.539 392.496, 375.262 381, 374.015 381 C 373.591 381, 372.651 381.716, 371.925 382.590 M 131.929 387.750 C 120.077 400.676, 110.897 416.502, 107.503 429.863 C 103.561 445.381, 103.696 462.437, 107.804 467.940 C 110.557 471.627, 114.914 472.609, 119.294 470.531 C 121.247 469.604, 123.165 468.093, 123.556 467.173 C 123.947 466.253, 124.356 459.875, 124.464 453 C 124.632 442.331, 125.059 439.341, 127.378 432.587 C 128.873 428.235, 131.696 421.935, 133.652 418.587 C 138.125 410.932, 147.005 399.997, 151.584 396.504 L 155.081 393.837 148.116 388.945 C 144.286 386.255, 140.866 383.592, 140.517 383.027 C 139.232 380.949, 137.079 382.133, 131.929 387.750" stroke="none" fill="#000000" fill-rule="evenodd"/></svg>